<svg xmlns="http://www.w3.org/2000/svg" xmlns:xlink="http://www.w3.org/1999/xlink" viewBox="0 0 512 512"><style><![CDATA[.L{stroke-linejoin:round}.M{stroke-width:4}.N{stroke-miterlimit:10}.O{stroke-linecap:round}.P{fill:none}.Q{fill:#def4fc}.R{stroke:#2481d7}.S{stroke:#c8dff5}.T{fill:#c8dff5}.U{fill:#6ab0e5}.V{fill:#5ba1e1}]]></style><g class="M P S"><circle cx="76.8" cy="81" r="51.1"/><g class="N"><path d="M142.3 81c0 36.2-29.3 65.5-65.5 65.5M11.3 81c0-36.2 29.3-65.5 65.5-65.5m52.7 118.1l53.6 53.6m-62.5-44.7l53.6 53.6m-62.5-44.8l53.6 53.6m-62.4-44.7l53.6 53.6M94 169.1l53.6 53.6m-62.5-44.8l53.6 53.6m-62.4-44.7l53.6 53.6m-62.5-44.7l53.6 53.6m-44.2-207c21.4 0 38.7 17.3 38.7 38.6s-17.3 38.6-38.7 38.6c-21.3 0-38.6-17.3-38.6-38.6-.1-21.3 17.3-38.6 38.6-38.6z"/><path d="m76.8 42.3c9.9 0 17.9 17.3 17.9 38.6s-8 38.6-17.9 38.6-17.9-17.3-17.9-38.6 8-38.6 17.9-38.6z"/><path d="M38.2 81h77.2"/></g><circle cx="183.4" cy="187.6" r="2.2"/><path d="M411.8 372.2v-17.9m6.9 11.1v-18m6.8 11.1v-17.9m6.9 11.1v-18m6.8 11.1v-17.9m6.9 11.1v-18m6.8 11.1v-17.9m6.9 11.1v-18m6.8 11.1v-17.9m6.9 11.1v-18m6.8 11.1v-17.9M405.6 366l-2.7-2.8 2.7-2.7m80.9-68.5l2.8 2.8-2.8 2.7" class="N"/></g><path d="M504.3 8.1H359.2L67.1 300.2l182.5 182.5 254.7-254.8z" class="Q"/><path d="M333.1 399.1l171.2-171.2V8.1h-1L222.7 288.7z" class="T"/><use xlink:href="#B" fill="#fff"/><g class="Q"><path d="M415.6 316.7c-.8-12-10.8-21.5-23-21.5H87.3c-3.8 0-7.4.9-10.5 2.5l-10 10c-1.6 3.2-2.6 6.8-2.6 10.6v157.3c0 15.6-12.7 28.3-28.3 28.3h192.4l187.3-187.2z"/><path d="M377.3 295.2h-290c-12.7 0-23 10.3-23 23.1v157.3c0 15.6-12.7 28.3-28.3 28.3h341.3V295.2z"/></g><path d="M377.3 295.2H85.6c-.3 0-.6 0-.9.1-.1 0-.3 0-.4.1-.3 0-.6.1-.9.1-.1 0-.2 0-.3.1-.4.1-.7.1-1.1.2h-.1c-1.7.4-3.4 1.1-5 1.9l-10 10-.6 1.2c-.5 1.2-1 2.5-1.3 3.8v.2c-.1.4-.2.7-.2 1.1 0 .1 0 .2-.1.3-.1.3-.1.6-.1.9 0 .1 0 .3-.1.4 0 .3-.1.6-.1.9v159c0 15.6-12.7 28.3-28.3 28.3h192.4l148.9-148.9v-59.7z" class="T"/><use xlink:href="#C" class="U"/><path d="M7.7 274.9v118c0 1 .2 2 .3 3-.1 1-.3 2-.3 3v76.8C7.7 491.3 20.4 504 36 504s28.3-12.7 28.3-28.3V318.4c0-12.7 10.3-23.1 23-23.1h290V275H7.7z" class="V"/><path d="M69.8 299.6L7.7 361.7v31.2c0 1 .2 2 .3 3-.1 1-.3 2-.3 3v76.8C7.7 491.3 20.4 504 36 504s28.3-12.7 28.3-28.3V318.4c0-5.8 2.1-11 5.6-15v-3.8z" fill="#288de8"/><g class="N P"><g class="R L"><g stroke-width="8"><path d="M36 503.9z"/><use xlink:href="#B"/><use xlink:href="#C"/></g><g class="M"><path d="M100 415.2h2.6v2.4H100z"/><path d="M114.2 416.4h67.3" class="O"/><path d="M100 433.6h2.6v2.4H100z"/><path d="M114.2 434.8h67.3" class="O"/><path d="M100 451.9h2.6v2.4H100z"/><path d="M114.2 453.2h67.3" class="O"/><path d="M100 470.3h2.6v2.4H100z"/><path d="M114.2 471.5h67.3" class="O"/></g></g><g class="S M"><path d="m388.2 420.4l-20.9-5.3-20.9 5.3c-1.4 24.6 1.3 40.2 20.9 47.4 19.6-7.3 22.3-22.8 20.9-47.4z"/><path d="M367.3 466.3v-49.8"/><path d="M367.3 466.3v-8.5"/></g></g><use xlink:href="#D" fill="#fff"/><path d="M371.5,52.2l-36.9,36.9v17h42.2c5.7,0,10.3-4.6,10.3-10.3V52.2H371.5z" class="Q"/><path d="M361.2 89.1c5.7 0 10.3-4.6 10.3-10.3V52.2l-36.9 36.9h26.6z" class="U"/><path d="m346.1 89.1h15c5.7 0 10.3-4.6 10.3-10.3v-15l-25.3 25.3z" class="V"/><g class="L M N P R"><use xlink:href="#D"/><path d="M361.2 89.1c5.7 0 10.3-4.6 10.3-10.3V52.2l-36.9 36.9h26.6zm-11.6 20.7h2v2h-2z"/><path d="M360.5 110.8h51.8" class="O"/><path d="M349.6 125.2h2v2h-2z"/><path d="M360.5 126.2h51.8" class="O"/><path d="M349.6 140.5h2v2h-2z"/><path d="M360.5 141.5h51.8" class="O"/><path d="M349.6 155.9h2v2h-2z"/><path d="M360.5 156.9h51.8" class="O"/></g><use xlink:href="#E" fill="#fff"/><path d="M259.5,164.2L222.7,201v17h42.2c5.7,0,10.3-4.6,10.3-10.3v-43.5H259.5z" class="Q"/><path d="M249.2 201c5.7 0 10.3-4.6 10.3-10.3v-26.5L222.7 201h26.5z" class="U"/><path d="M234.2,201h15c5.7,0,10.3-4.6,10.3-10.3v-15L234.2,201z" class="V"/><g class="L M N P R"><use xlink:href="#E"/><path d="M249.2 201c5.7 0 10.3-4.6 10.3-10.3v-26.5L222.7 201h26.5z"/></g><use xlink:href="#F" class="T"/><path d="M277.3 204.5v29.4h27.6c0-.6.1-1.2.1-1.8-.1-15.2-12.5-27.6-27.7-27.6zm-7.9 37.3l18.5 18.6" class="Q"/><use xlink:href="#F" class="L M N P R"/><path d="M277.3 204.5v29.4h27.6c0-.6.1-1.2.1-1.8-.1-15.2-12.5-27.6-27.7-27.6z" fill="#2481d7"/><g class="M N P"><g class="L O R"><path d="M335.2 295.2L435.4 195"/><path d="M446.1 184.3"/><path d="M455 175.4"/><path d="M463.9 166.5"/><path d="M404.2 19.6L304 119.8"/><path d="M293.3 130.5"/><path d="M284.4 139.4"/><path d="M275.5 148.3"/><path d="M184.2 239.6L84 339.8"/><path d="M194.9 228.9"/><path d="M203.8 220"/><path d="M212.7 211.1"/></g><path d="M182.6 220.9V203m6.9 11.1v-18m6.8 11.1v-17.9m6.9 11.1v-18m6.8 11.1v-17.9m6.9 11.1v-18m6.8 11.1v-17.9m6.9 11.1v-18m6.8 11.1v-17.9m6.9 11.1v-18m6.8 11.1v-17.9m-74.7 80.2l-2.7-2.7 2.7-2.8m80.9-68.5l2.8 2.8-2.8 2.8" class="S"/></g><path d="M445.9 381.7l5.6-5.6v8.1a3.12 3.12 0 0 1-3.1 3.1h-8.1l5.6-5.6zm28.8 38.7a3.12 3.12 0 0 1-3.1 3.1h-30a3.12 3.12 0 0 1-3.1-3.1v-30.7h9.8c3 0 5.5-2.5 5.5-5.5v-9.8h17.7a3.12 3.12 0 0 1 3.1 3.1v42.9zM43.5 233.8l5.6-5.6v8.1a3.12 3.12 0 0 1-3.1 3.1h-8.1l5.6-5.6zm28.8 38.8a3.12 3.12 0 0 1-3.1 3.1h-30a3.12 3.12 0 0 1-3.1-3.1v-30.7H46c3 0 5.5-2.5 5.5-5.5v-9.8h17.7a3.12 3.12 0 0 1 3.1 3.1v42.9z" class="T"/><path d="m453.2 34.9l5.6-5.6v8.1c0 1.7-1.4 3.1-3.1 3.1h-8.1l5.6-5.6zm28.8 38.8c0 1.7-1.4 3.1-3.1 3.1h-30c-1.7 0-3.1-1.4-3.1-3.1v-30.7h9.8c3 0 5.5-2.5 5.5-5.5v-9.8h17.7c1.7 0 3.1 1.4 3.1 3.1v42.9z" fill="#fff"/><path d="m448.9 76.8h30c1.7 0 3.1-1.4 3.1-3.1v-43c0-0.4-0.1-0.7-0.2-1.1l-36 36v8.1c0 1.7 1.4 3.1 3.1 3.1z" class="Q"/><g class="M P S"><circle cx="228.8" cy="51.8" r="21.4"/><path d="M228.8 87.8c-19.9 0-36-16.1-36-36m36-36c19.9 0 36 16.1 36 36m-65 29l-29.5 29.5" class="N"/><circle cx="228.8" cy="51.8" r="12.4"/><path d="M228.8 33.4v10.9m0 15v10.9m18.4-18.4h-10.9m-15 0h-10.9" class="N"/><circle cx="170.1" cy="110.5" r="1.2"/><g class="N"><path d="M170.1 110.5l21 21-31.9 31.9m301.3 314.8h-7.7c-6.8 0-12.3-5.5-12.3-12.3V446h20c6.8 0 12.3 5.5 12.3 12.3v7.7c0 6.7-5.5 12.2-12.3 12.2zm-3.8-22.7v13.1"/><path d="M463.2 462.1h-13.1"/></g></g><g class="Q"><circle cx="98.8" cy="342.3" r="2.5"/><circle cx="114.2" cy="342.3" r="2.5"/><circle cx="129.5" cy="342.3" r="2.5"/><circle cx="144.8" cy="342.3" r="2.5"/><circle cx="160.2" cy="342.3" r="2.5"/><circle cx="175.5" cy="342.3" r="2.5"/><circle cx="190.8" cy="342.3" r="2.5"/><circle cx="206.2" cy="342.3" r="2.5"/><circle cx="221.5" cy="342.3" r="2.5"/><circle cx="236.8" cy="342.3" r="2.5"/><circle cx="252.2" cy="342.3" r="2.5"/><circle cx="267.5" cy="342.3" r="2.5"/><circle cx="98.8" cy="358.5" r="2.5"/><circle cx="114.2" cy="358.5" r="2.5"/><circle cx="129.5" cy="358.5" r="2.5"/><circle cx="144.8" cy="358.5" r="2.5"/><circle cx="160.2" cy="358.5" r="2.5"/><circle cx="175.5" cy="358.5" r="2.5"/><circle cx="190.8" cy="358.5" r="2.5"/><circle cx="206.2" cy="358.5" r="2.5"/><circle cx="221.5" cy="358.5" r="2.5"/><circle cx="236.8" cy="358.5" r="2.5"/><circle cx="252.2" cy="358.5" r="2.5"/><circle cx="267.5" cy="358.5" r="2.5"/><circle cx="98.8" cy="374.7" r="2.5"/><circle cx="114.2" cy="374.7" r="2.5"/><circle cx="129.5" cy="374.7" r="2.5"/><circle cx="144.8" cy="374.7" r="2.5"/><circle cx="160.2" cy="374.7" r="2.5"/><circle cx="175.5" cy="374.7" r="2.5"/><circle cx="190.8" cy="374.7" r="2.5"/><circle cx="206.2" cy="374.7" r="2.5"/><circle cx="221.5" cy="374.7" r="2.5"/><circle cx="236.8" cy="374.7" r="2.5"/><circle cx="252.2" cy="374.7" r="2.5"/><circle cx="267.5" cy="374.7" r="2.5"/><circle cx="98.8" cy="391" r="2.5"/><circle cx="114.2" cy="391" r="2.5"/><circle cx="129.5" cy="391" r="2.5"/><circle cx="144.8" cy="391" r="2.5"/><circle cx="160.2" cy="391" r="2.5"/><circle cx="175.5" cy="391" r="2.5"/><circle cx="190.8" cy="391" r="2.5"/><circle cx="206.2" cy="391" r="2.5"/><circle cx="221.5" cy="391" r="2.5"/><circle cx="236.8" cy="391" r="2.5"/><circle cx="252.2" cy="391" r="2.5"/><circle cx="267.5" cy="391" r="2.5"/></g><g stroke="#fff" class="L M N O P"><path d="M323.2 307.2L223.1 407.3"/><path d="M212.4 418"/><path d="M203.4 427"/><path d="M194.5 435.9"/></g><defs ><path id="B" d="M392.6 295.2H87.3c-12.7 0-23 10.3-23 23.1v157.3c0 15.6-12.7 28.3-28.3 28.3h351.4c15.6 0 28.3-12.7 28.3-28.3V318.2c-.1-12.7-10.4-23-23.1-23z"/><path id="C" d="M64.2 475.6V318.3c0-12.7 10.3-23.1 23-23.1h290V264c0-13.3-10.7-24-24-24H127.6l-11.4-21.8c-4.1-7.9-12.3-12.9-21.3-12.9H31.7c-13.3 0-24 10.8-24 24v163.6c0 1 .2 2 .3 3-.1 1-.3 2-.3 3v76.8C7.7 491.3 20.4 504 36 504c15.6-.1 28.2-12.8 28.2-28.4z"/><path id="D" d="m416.9 52.2h-45.4l-36.9 36.9v74.4c0 5.7 4.6 10.3 10.3 10.3h72c5.7 0 10.3-4.6 10.3-10.3v-101c0-5.7-4.6-10.3-10.3-10.3z"/><path id="E" d="M305 164.2h-45.4L222.7 201v74.4c0 5.7 4.6 10.3 10.3 10.3h72c5.7 0 10.3-4.6 10.3-10.3v-101c0-5.6-4.6-10.2-10.3-10.2z"/><path id="F" d="m269.4 212.4c-15.3 0-27.7 12.4-27.7 27.7s12.4 27.7 27.7 27.7c14.7 0 26.7-11.5 27.6-25.9h-27.6v-29.5z"/></defs></svg>