<svg xmlns="http://www.w3.org/2000/svg" xmlns:xlink="http://www.w3.org/1999/xlink" viewBox="0 0 512 512"><style><![CDATA[.O{stroke-miterlimit:10}.P{stroke-linejoin:round}.Q{fill:none}.R{stroke:#2481d7}.S{stroke-width:6}.T{stroke-linecap:round}.U{fill:#def4fc}.V{fill:#afd8f9}.W{stroke-width:4}.X{fill:#e9f6ff}.Y{fill:#288de8}.Z{fill:#5ba1e1}.a{stroke-dasharray:4,10}.b{fill:#2481d7}]]></style><path d="M20.514 269.9l229.95-229.95 229.454 229.454-229.95 229.95z" class="X"/><g class="Q R P"><g class="S"><circle cx="298.4" cy="295.9" r="7.7"/><circle cx="298.4" cy="117.5" r="7.7"/></g><path d="M298.4 288.2v-163" class="O T W a"/></g><use xlink:href="#B" class="U"/><path d="M358.6 48.1h90.9v16.8h-90.9z" class="V"/><path d="m437.5 24.8h-66.8c-6.7 0-12.1 5.4-12.1 12.1v11.2h90.9v-11.2c0-6.7-5.4-12.1-12-12.1z" class="Y"/><path d="M383.9 83.9l10.9 10.9 29.4-29.3" class="V"/><use xlink:href="#C" class="Y"/><path d="M235 447.8c0 13.4-9.1 24.2-20.2 24.2H68.4c-11.2 0-20.2-10.8-20.2-24.2V33.7c0-13.4 9.1-24.2 20.2-24.2h146.3c11.2 0 20.2 10.8 20.2 24.2v414.1z" class="b"/><use xlink:href="#C" stroke-width="8" class="O P Q R"/><use xlink:href="#D" class="U"/><path d="M48.2 35.5V446c1.9.5 3.8.7 5.8.7h175.1c2 0 3.9-.3 5.8-.7V35.5c-1.9-.5-3.8-.7-5.8-.7H54c-2 0-3.9.3-5.8.7z" class="V"/><use xlink:href="#D" class="O P Q R S"/><path d="m446.9 359.7c-5.1-5.1-12.2-6.4-15.7-2.8l-85.3 85.3c-3.6 3.6-2.3 10.6 2.8 15.7l44.6 44.6h98.2v-98.2l-44.6-44.6z" class="Z"/><path d="m491.5 502.5v-98.2l-25.4-25.4c-5.1-5.1-12.2-6.4-15.7-2.8l-85.3 85.3c-3.6 3.6-2.3 10.6 2.8 15.7l25.4 25.4h98.2z" class="Y"/><use xlink:href="#E" fill="#fff"/><g class="X"><path d="M309.5 257.6l-57.8 57.8-45.9-45.9c-9.4-9.4-24.6-9.4-34 0s-9.4 24.6 0 34l92.3 92.3v24.3c0 6.7 1.9 13 5.3 18.3 5.3 3.3 11.6 5.3 18.3 5.3h42.5c10.3 0 19.4-4.6 25.7-11.8.5-.5 1.1-.8 1.7-1.4l62.4-62.4c16.2-16.2 16.2-42.5 0-58.8l-51.7-51.7c-16.3-16.2-42.6-16.2-58.8 0z"/><path d="M278 409.7l-26.4-26.3m12.5-72.4c-4.7 4.7-12.3 4.7-17 0l-6.9-6.9"/></g><g class="Q O"><g stroke-width="8" class="P R"><use xlink:href="#E"/><path d="M278 409.7l-26.4-26.3m12.5-72.4c-4.7 4.7-12.3 4.7-17 0l-6.9-6.9m251.3 100.2l-44.6-44.6c-5.1-5.1-12.2-6.4-15.7-2.8l-85.3 85.3c-3.6 3.6-2.3 10.6 2.8 15.7l44.6 44.6" class="T"/></g><g class="W"><path d="M289.7 41.9h39.5m-39.5 11.5h29.7m-29.7 11.5h39.5m-39.5 11.5h29.7m-29.7 11.5h39.5" stroke="#c8dff5"/><path d="M66.9 197.4h39.4m-39.4 11.5h29.6m-29.6 11.5h39.4m-39.4 11.5h29.6m-29.6 11.5h39.4" stroke="#f0f8ff"/></g></g><use xlink:href="#F" fill="#6ab0e5"/><path d="m475 241.3c0-16.8-13.6-30.5-30.5-30.5-16.8 0-30.5 13.6-30.5 30.5 0 8.8 3.8 16.8 9.8 22.4l20.6 20.6 20.4-20.4c6.4-5.7 10.2-13.7 10.2-22.6z" class="Z"/><circle cx="444.6" cy="236.5" r="14.9" class="V"/><circle cx="444.6" cy="236.5" r="10.4" class="U"/><g class="Q R P"><g class="S"><circle cx="444.6" cy="236.5" r="14.9"/><g class="O"><use xlink:href="#F"/><use xlink:href="#B"/><g class="T"><path d="M383.9 83.9l10.9 10.9 29.4-29.3m-65.6-17.4h90.9m-76-7.8v7.8m12.2-7.8v7.8"/><path d="M397.9 40.3v7.8m12.3-7.8v7.8m12.2-7.8v7.8m12.2-7.8v7.8"/></g></g><circle cx="47.1" cy="272.6" r="7.7"/></g><path d="M104.8 272.6h-50" class="O T W a"/></g><path d="M134.7 269.9l-25.5-13.5c-.9-.5-2-.5-3 .1-.9.5-1.5 1.5-1.5 2.6v27c0 1.1.6 2 1.5 2.6.5.3 1 .4 1.5.4s1-.1 1.4-.3l25.5-13.5c1-.5 1.6-1.5 1.6-2.7s-.5-2.1-1.5-2.7z" class="b"/><g class="P Q R"><circle cx="79.8" cy="318.2" r="7.7" class="S"/><path d="M137.5 318.2h-50" class="O T W a"/></g><path d="M167.4 315.5L141.9 302c-.9-.5-2-.5-3 .1-.9.5-1.5 1.5-1.5 2.6v27c0 1.1.6 2 1.5 2.6.5.3 1 .4 1.5.4s1-.1 1.4-.3l25.5-13.5c1-.5 1.6-1.5 1.6-2.7s-.5-2.1-1.5-2.7z" class="b"/><use xlink:href="#G" class="U"/><path d="M411 150.2h-74.9c-6.2 0-11.3 5.1-11.3 11.3v25c0 6.2 5.1 11.3 11.3 11.3h19.4c2.9 0 5.6-1.1 7.7-3l10.4-8.6 10.4 8.6c2.1 1.9 4.8 3 7.7 3H411c6.2 0 11.3-5.1 11.3-11.3v-25c0-6.2-5.1-11.3-11.3-11.3z" class="V"/><g class="Z"><circle cx="350.3" cy="168.7" r="10.7"/><circle cx="396.7" cy="168.7" r="10.7"/></g><g class="P Q R S"><use xlink:href="#G" class="O"/><circle cx="350.3" cy="168.7" r="10.7"/><circle cx="396.7" cy="168.7" r="10.7"/></g><circle cx="141.6" cy="128.3" r="60.2" class="Z"/><use xlink:href="#H" class="U"/><path d="M131.5 145.7l-10-17.4 10-17.4h20.2l10 17.4-10 17.4z" class="Y"/><path d="M131.4 111.1l13-22.5m-5.6 79.5l13-22.6m-30.2-17l-13-22.5m66 44.7l-13-22.6" class="U"/><g class="P Q R S"><circle cx="141.6" cy="128.3" r="60.2"/><g class="O"><path d="M131.5 145.7l-10-17.4 10-17.4h20.2l10 17.4-10 17.4z"/><path d="M151.4 110.9h26.1m-71.8 34.8h26.1m-.4-34.6l13-22.5m-5.6 79.5l13-22.6m-30.2-17l-13-22.5m66 44.7l-13-22.6" class="T"/><use xlink:href="#H"/></g></g><circle cx="141.6" cy="388.3" r="10.5" class="X"/><use xlink:href="#I" fill="#fff"/><path d="M112 410.7c.7 1.2 2.2 1.8 3.5 1.4l6.4-1.9c3 2.7 6.6 4.8 10.5 6.1l1.6 6.5c.3 1.4 1.6 2.3 3 2.3h9.2c1.4 0 2.6-1 3-2.3l1.6-6.5c2-.6 3.8-1.5 5.6-2.5 1.7-1 3.4-2.2 4.9-3.6l6.4 1.9a3.04 3.04 0 0 0 3.5-1.4l2.8-4.8-3.5-3.4c.5-2.5.7-5.1.6-7.7l-.6-.5.3-1.9-.3-2 .6-.6c.1-2.6-.1-5.2-.6-7.7l3.6-3.4-2.8-4.8c-.7-1.2-2.2-1.8-3.5-1.4l-6.5 1.9c-3-2.7-6.6-4.8-10.5-6.1l-1.6-6.5c-.3-1.4-1.6-2.4-3-2.4H137c-1.4 0-2.6 1-3 2.3l-1.6 6.5c-2 .6-3.8 1.5-5.6 2.5-1.7 1-3.4 2.2-4.9 3.6l-6.4-1.9a3.04 3.04 0 0 0-3.5 1.4l-2.8 4.8 3.5 3.4c-.5 2.5-.7 5.1-.6 7.7l.6.5-.3 1.9.3 2-.6.6c-.1 2.6.1 5.2.6 7.7l-3.6 3.4 2.9 4.9z" class="X"/><circle cx="141.6" cy="388.3" r="10.5" class="V"/><g class="Q"><g class="P R S"><circle cx="141.6" cy="388.3" r="10.5"/><use xlink:href="#I" class="O"/></g><g stroke="#c8dff5" class="W"><path d="M466.5 146H480v13.5h-13.5zM455 174h5.6v5.6H455zM274.5 465.1h15.2v15.2h-15.2zm-132.9 26.5h9.8v9.8h-9.8zM473.3 24.8h15.1v15.1h-15.1zm0 45.3h9.7v9.7h-9.7z" class="O"/><g stroke-dasharray="4,4"><circle cx="465.5" cy="311.3" r="7.7"/><circle cx="472.6" cy="345.3" r="6.1"/><circle cx="376.6" cy="217.2" r="3.1"/><circle cx="321.6" cy="472.2" r="8.1"/><circle cx="219" cy="494.1" r="2.5"/><circle cx="334.6" cy="219.1" r="4.9"/><circle cx="469.8" cy="114" r="3.2"/></g></g></g><defs ><path id="B" d="m449.5 103.7c0 6.7-5.4 12.1-12.1 12.1h-66.8c-6.7 0-12.1-5.4-12.1-12.1v-66.8c0-6.7 5.4-12.1 12.1-12.1h66.8c6.7 0 12.1 5.4 12.1 12.1v66.8z"/><path id="C" d="M253.4 447.8a24.16 24.16 0 0 1-24.2 24.2H54a24.16 24.16 0 0 1-24.2-24.2V33.7C29.8 20.3 40.7 9.5 54 9.5h175.1a24.16 24.16 0 0 1 24.2 24.2v414.1z"/><path id="D" d="M253.4 422.5a24.16 24.16 0 0 1-24.2 24.2H54a24.16 24.16 0 0 1-24.2-24.2V59A24.16 24.16 0 0 1 54 34.8h175.1A24.16 24.16 0 0 1 253.3 59v363.5z"/><path id="E" d="M298.8 246.9L241 304.7l-45.9-45.9c-9.4-9.4-24.6-9.4-34 0s-9.4 24.6 0 34l92.3 92.3v24.3a34.23 34.23 0 0 0 34.3 34.3h42.5c10.3 0 19.4-4.6 25.7-11.8.5-.5 1.1-.8 1.7-1.4l62.4-62.4c16.2-16.2 16.2-42.5 0-58.8l-62.4-62.4c-16.3-16.2-42.6-16.2-58.8 0z"/><path id="F" d="m478.4 236.5c0-18.7-15.2-33.8-33.9-33.8s-33.9 15.2-33.9 33.8c0 9.8 4.2 18.7 10.9 24.8l22.9 22.9 22.7-22.7c7-6.2 11.3-15.1 11.3-25z"/><path id="G" d="M411 139.5h-74.9c-6.2 0-11.3 5.1-11.3 11.3v35.8c0 6.2 5.1 11.3 11.3 11.3h19.4c2.9 0 5.6-1.1 7.7-3l10.4-8.6 10.4 8.6c2.1 1.9 4.8 3 7.7 3H411c6.2 0 11.3-5.1 11.3-11.3v-35.8c0-6.2-5.1-11.3-11.3-11.3z"/><path id="H" d="m183 128.3c0 22.9-18.6 41.4-41.4 41.4-22.9 0-41.4-18.5-41.4-41.4s18.5-41.4 41.4-41.4 41.4 18.5 41.4 41.4z"/><path id="I" d="M146.2 425.2H137c-1.4 0-2.6-1-3-2.3l-1.6-6.5c-3.9-1.3-7.5-3.3-10.5-6.1l-6.4 1.9a3.04 3.04 0 0 1-3.5-1.4l-4.6-8c-.7-1.2-.5-2.8.5-3.8l4.9-4.6a30.8 30.8 0 0 1 0-12.1l-4.9-4.6c-1-1-1.2-2.5-.5-3.8l4.6-8c.7-1.2 2.2-1.8 3.5-1.4l6.4 1.9c1.5-1.4 3.2-2.6 4.9-3.6s3.6-1.8 5.6-2.5l1.6-6.5c.3-1.4 1.6-2.3 3-2.3h9.2c1.4 0 2.7 1 3 2.4l1.6 6.5c3.9 1.3 7.4 3.3 10.5 6.1l6.5-1.9a3.04 3.04 0 0 1 3.5 1.4l4.6 8c.7 1.2.5 2.8-.5 3.8l-4.9 4.6a30.8 30.8 0 0 1 0 12.1l4.9 4.6c1 1 1.3 2.5.5 3.8l-4.6 8c-.7 1.2-2.2 1.8-3.5 1.4l-6.4-1.9c-1.5 1.4-3.2 2.6-4.9 3.6s-3.6 1.8-5.6 2.5l-1.6 6.5c-.4 1.2-1.7 2.2-3.1 2.2z"/></defs></svg>