<svg xmlns="http://www.w3.org/2000/svg" xmlns:xlink="http://www.w3.org/1999/xlink" viewBox="0 0 512 512"><style><![CDATA[.M{stroke-linejoin:round}.N{stroke-miterlimit:10}.O{fill:none}.P{stroke-width:4}.Q{stroke:#2481d7}.R{fill:#def4fc}.S{stroke-width:8}.T{stroke-linecap:round}.U{stroke-width:6}.V{fill:#e9f6ff}.W{fill:#5ba1e1}.X{stroke:#c8dff5}.Y{fill:#afd8f9}.Z{fill:#6ab0e5}.a{fill:#c8dff5}]]></style><path d="M177.7 304.7c-78 0-141.2-63.2-141.2-141.2M177.7 22.2c78 0 141.2 63.2 141.2 141.2" class="R"/><g class="N O P X"><path d="M331.9 163.4h-28.3m-15.4 0h-3.1m-11.8 0h-3.2m-11.8 0h-3.1m-231.7 0h28.2m15.4 0h3.1m11.9 0h3.1m11.8 0h3.2m155.6 78.2l-2.2-2.2m-8.3-8.4l-2.2-2.2m-8.4-8.3l-2.2-2.3M68.6 54.4l20 20m10.9 10.9l2.2 2.2m8.4 8.3l2.2 2.2m8.3 8.4l2.3 2.2m54.8 209v-28.2m0-15.4v-3.1m0-11.9v-3.1m0-11.8v-3.2m0-231.7v28.3m0 15.4V56m0 11.8V71m0 11.8v3.1M68.6 272.5l20-20"/><path d="M99.5 241.6l2.2-2.2m8.4-8.4l2.2-2.2m8.3-8.3l2.3-2.3M286.7 54.4l-20 20m-10.9 10.8l-2.2 2.3m-8.3 8.3l-2.2 2.2m-8.4 8.4l-2.2 2.2m-54.8 196.1c-78 0-141.2-63.2-141.2-141.2"/><path d="M177.7 22.2c78 0 141.2 63.2 141.2 141.2m-205.1 0c0-35.3 28.6-63.9 63.9-63.9m63.9 63.9c0 35.3-28.6 63.9-63.9 63.9"/></g><use xlink:href="#B" fill="#fff"/><path d="M411.6 107.1V70.9c0-4 .8-7.7 2.3-11.1h-117c-15.3 0-27.8 12.4-27.8 27.8v111.1h96.6c-11.4 0-21.2 6.9-25.5 16.7l-1.8 22.1c2.6 12.6 13.8 22.1 27.2 22.1h18.1c15.3 0 27.8-12.4 27.8-27.8V107.1z" class="V"/><path d="m411.3 198.6h-45.5c-15.4 0-27.8 12.4-27.8 27.8v5.3c0 15.3 12.4 27.8 27.8 27.8h18.1c13.8 0 25.3-10.1 27.4-23.4v-37.5z" class="R"/><path d="M407.1 247l-41.3-48.4c-15.4 0-27.8 12.4-27.8 27.8v5.3c0 15.3 12.4 27.8 27.8 27.8h18.1c9.7.1 18.2-4.9 23.2-12.5z" class="Y"/><use xlink:href="#C" class="R"/><path d="M269.2 228.4v-29.8H238c-15.3 0-27.8 12.4-27.8 27.8v5.3c0 14.4 10.9 26.2 24.9 27.6 1 .1 1.9.2 2.9.2 17.2.1 31.2-13.9 31.2-31.1z" class="V"/><g class="N O Q M"><g class="S"><use xlink:href="#C"/><use xlink:href="#B"/></g><path d="M292.1 82.3h96.4m-96.4 23.6h96.4m-96.4 23.5h96.4" class="P T"/></g><use xlink:href="#D" class="W"/><path d="M447.5 87.6c0-15.3-12.4-27.8-27.8-27.8h-3.4c-.8 0-1.6.1-2.3.1-1.5 3.4-2.3 7.1-2.3 11v21h35.8v-4.3z" fill="#288de8"/><use xlink:href="#D" class="M N O Q S"/><path d="m315.7 178.6v53.1c0 15.4 12.4 27.8 27.8 27.8h3.4c15.3 0 27.8-12.4 27.8-27.8v-53.2h-59z" class="W"/><path d="M315.7 187.1v44.6c0 15.4 12.4 27.8 27.8 27.8h3.4c15.3 0 27.8-12.4 27.8-27.8V187" class="M N O Q S T"/><use xlink:href="#E" fill="#fff"/><path d="M315.7 191.7v-36.3c0-4 .8-7.7 2.3-11.1H201c-15.3 0-27.8 12.4-27.8 27.8v80.2h96.6c-11.4 0-21.2 6.9-25.5 16.7l-1.8 22.1c2.6 12.6 13.8 22.1 27.2 22.1H288c15.3 0 27.8-12.4 27.8-27.8v-93.7z" class="V"/><path d="M315.4 252.4h-45.5c-15.3 0-27.8 12.4-27.8 27.8v5.3c0 15.3 12.4 27.8 27.8 27.8H288c13.8 0 25.3-10.1 27.4-23.4v-37.5z" class="R"/><path d="M311.2 300.8L270 252.4c-15.3 0-27.8 12.4-27.8 27.8v5.3c0 15.3 12.4 27.8 27.8 27.8h18c9.7 0 18.2-5 23.2-12.5z" class="Y"/><use xlink:href="#F" class="R"/><path d="M173.3 282.2v-29.8h-31.2c-15.3 0-27.8 12.4-27.8 27.8v5.3c0 14.4 10.9 26.2 24.9 27.6 1 .1 1.9.2 2.9.2 17.2 0 31.2-13.9 31.2-31.1z" class="V"/><g class="N O Q M"><g class="S"><use xlink:href="#F"/><use xlink:href="#E"/></g><path d="M196.3 166.9h96.3m-96.3 23.6h96.3M196.3 214h96.3" class="P T"/></g><path d="M374.8 180.1v-23c0-15.4-12.4-27.8-27.8-27.8h-3.4c-15.3 0-27.8 12.4-27.8 27.8V180h59z" class="W"/><path d="m374.8 186.8v-31.3c0-15.3-12.4-27.8-27.8-27.8h-3.4c-15.3 0-27.8 12.4-27.8 27.8v31.3" class="M N O Q S T"/><use xlink:href="#G" class="Z"/><use xlink:href="#G" class="M N O Q S"/><use xlink:href="#H" fill="#fff"/><g class="R"><path d="M169.6 301.2c.7-9.7 8.7-17.4 18.6-17.4h247.3c3.1 0 6 .7 8.5 2.1l8.1 8.1c1.3 2.6 2.1 5.5 2.1 8.6V430c0 12.6 10.3 22.9 22.9 22.9H321.2L169.6 301.2z"/><path d="M200.6 283.8h234.9c10.3 0 18.7 8.4 18.7 18.7v127.4c0 12.6 10.3 22.9 22.9 22.9H200.6v-169z"/></g><path d="M200.6 283.8h236.3c.3 0 .5 0 .8.1h.3c.3 0 .5.1.8.1h.3c.3.1.6.1.9.2h.1c1.4.4 2.8.9 4 1.5l8.1 8.1c.2.3.3.6.5 1l1.1 3.1v.1c.1.3.1.6.2.9 0 .1 0 .2.1.3 0 .2.1.5.1.7v.3c0 .3.1.5.1.8v128.8c0 12.6 10.3 22.9 22.9 22.9h-156L200.6 332.2v-48.4z" class="a"/><use xlink:href="#I" class="Z"/><path d="M499.9 429.9v-62.2c0-.8-.2-1.6-.2-2.4l.2-2.4v-26.5L402.5 239H220c-8.4 0-15.4 5.3-18.2 12.6l32.1 32.1h201.5c10.3 0 18.7 8.4 18.7 18.7v127.4c0 12.6 10.3 22.9 22.9 22.9 12.7.1 22.9-10.2 22.9-22.8z" class="W"/><path d="M318.4 239H220c-10.8 0-19.5 8.7-19.5 19.5v25.3H363L318.4 239zM477 452.8c12.7 0 22.9-10.3 22.9-22.9v-9.3l-45.8-45.8v55.1c0 12.6 10.3 22.9 22.9 22.9z" fill="#288de8"/><g class="M N O Q S"><path d="M477 452.8z"/><use xlink:href="#H"/><use xlink:href="#I"/></g><use xlink:href="#D" x="-198.1" y="191.8" class="Z"/><path d="M249.3 279.3c0-15.3-12.4-27.8-27.8-27.8h-3.4c-.8 0-1.6.1-2.3.1-1.5 3.4-2.3 7.1-2.3 11v21h35.8v-4.3z" class="W"/><use xlink:href="#J" fill="#fff"/><path d="M213.5 298.9v-36.3c0-4 .8-7.7 2.3-11.1h-117C83.5 251.5 71 264 71 279.3v162.5h96.6c-11.4 0-21.2 6.9-25.5 16.7l-1.8 22.1c2.6 12.6 13.8 22.1 27.2 22.1h18.1c15.3 0 27.8-12.4 27.8-27.8v-176z" class="V"/><path d="m213.1 441.9h-45.5c-15.3 0-27.8 12.4-27.8 27.8v5.3c0 15.3 12.4 27.8 27.8 27.8h18.1c13.8 0 25.3-10.1 27.4-23.4v-37.5z" class="R"/><path d="m208.9 490.3l-41.3-48.4c-15.3 0-27.8 12.4-27.8 27.8v5.3c0 15.3 12.4 27.8 27.8 27.8h18.1c9.7 0 18.3-5 23.2-12.5z" class="Y"/><use xlink:href="#K" class="R"/><path d="M71 471.7v-29.8H39.8c-15.3 0-27.8 12.4-27.8 27.8v5.3c0 14.4 10.9 26.2 24.9 27.6 1 .1 1.9.2 2.9.2 17.3 0 31.2-14 31.2-31.1z" class="V"/><g class="N O"><g class="Q M"><g class="S"><use xlink:href="#K"/><use xlink:href="#J"/></g><path d="M94 356.4h96.3M94 380h96.3M94 403.5h96.3" class="P T"/><use xlink:href="#D" x="-198.1" y="191.8" class="S"/><path d="M94.2 284.4h21.3m-10.6 0v21.3m0 0v21.2" class="T U"/><path d="M129.5 284.4h21.3v21.3h-21.3z" class="U"/><g class="T U"><path d="M129.5 326.9v-21.2h21.3v21.2m14 0l21.3-42.5"/><path d="M164.8 284.4l21.3 42.5"/></g></g><g class="P X"><use xlink:href="#L"/><use xlink:href="#L" x="29.9" y="29.9"/><path d="M102.2 218.6l37.7-37.7"/></g></g><path d="M123.2 47c-.1 0-.3 0-.4-.1-.4-.2-.7-.6-.7-1.1V35c0-.3.1-.6.3-.8L136 20.6c.4-.4 1.2-.4 1.6 0l13.6 13.6c.2.2.3.5.3.8v10.9c0 .5-.3.9-.7 1.1s-.9.1-1.3-.2L136.7 34 124 46.7c-.2.2-.5.3-.8.3zm27.1 19c-.3 0-.6-.1-.8-.3l-12.8-12.8L124 65.7c-.3.3-.8.4-1.2.2s-.7-.6-.7-1.1V53.9c0-.3.1-.6.3-.8L136 39.6c.4-.4 1.2-.4 1.6 0l13.6 13.6c.2.2.3.5.3.8v10.9c0 .5-.3.9-.7 1.1h-.5zm0 14.5c-.3 0-.6-.1-.8-.3l-12.8-12.8L124 80.1c-.5.4-1.2.4-1.6 0s-.4-1.2 0-1.6L136 64.9c.2-.2.5-.3.8-.3s.6.1.8.3l13.6 13.6c.4.4.4 1.2 0 1.6-.3.3-.6.4-.9.4zm0 13.3c-.3 0-.6-.1-.8-.3l-12.8-12.8L124 93.5c-.5.4-1.2.4-1.6 0s-.4-1.2 0-1.6L136 78.3c.2-.2.5-.3.8-.3s.6.1.8.3l13.6 13.6c.4.4.4 1.2 0 1.6-.3.2-.6.3-.9.3zM22.1 389.7c-.1 0-.3 0-.4-.1-.4-.2-.7-.6-.7-1.1v-10.9c0-.3.1-.6.3-.8l13.6-13.6c.4-.5 1.2-.5 1.6 0L50 376.9c.2.2.3.5.3.8v10.9c0 .5-.3.9-.7 1.1s-.9.1-1.3-.3l-12.8-12.8-12.8 12.8c0 .2-.3.3-.6.3zm27.1 19c-.3 0-.6-.1-.8-.3l-12.8-12.8-12.8 12.8c-.3.3-.8.4-1.2.2s-.7-.6-.7-1.1v-10.9c0-.3.1-.6.3-.8l13.6-13.6c.4-.4 1.2-.4 1.6 0L50 395.8c.2.2.3.5.3.8v10.9c0 .5-.3.9-.7 1.1-.1.1-.2.1-.4.1zm0 9.5c-.3 0-.6-.1-.8-.3l-12.8-12.8-12.8 12.8c-.5.4-1.2.4-1.6 0s-.4-1.2 0-1.6l13.6-13.6c.2-.2.5-.3.8-.3s.6.1.8.3L50 416.2c.4.4.4 1.2 0 1.6-.2.2-.5.4-.8.4z" class="a"/><g class="N O"><g class="M Q T"><path d="M411.3 369.9c0 24.3-19.7 44-44 44m-44-44c0-24.3 19.7-44 44-44" class="U"/><path d="M393 365.2c.3 1.5.4 3.1.4 4.8m-26.1-26.2c3.6 0 7 .7 10.2 2.1M367.3 396c-14.4 0-26.1-11.7-26.1-26.1" class="P"/><path d="M356.6 366.8l10.2 10.2 40.3-40.3m-163.4-4l8.2 8.2 21.2-21.2M243.7 370l8.2 8.1 21.2-21.2m-29.4 50.4l8.2 8.1 21.2-21.2" class="U"/></g><path d="M470.6 108.6v70m-44.9 8.5h57.9m-57.9 11.5h57.9" class="P X"/></g><use xlink:href="#M" fill="#fff"/><g class="R"><path d="M353.7 179l-37.9 38v17.5h43.4c5.9 0 10.6-4.8 10.6-10.6V179h-16.1z"/><path d="M343.1 217c5.9 0 10.6-4.8 10.6-10.6V179l-37.9 38h27.3z"/></g><path d="M327.6 217H343c5.9 0 10.6-4.8 10.6-10.6v-15.5l-26 26.1z" class="a"/><g class="M N O Q"><use xlink:href="#M" class="S"/><path d="M343.1 217c5.9 0 10.6-4.8 10.6-10.6V179l-37.9 38h27.3z" class="U"/></g><path d="M363.8 258.9l19.1 19.1" class="R"/><g class="O N P"><path d="M483.2 31.9l7.8-7.8 7.7 7.8m-7.7-7.8v17.7m0 4.2v4.3m0 2.6v4.2m0 2.7V64m0 3.5v133.9M27.9 271.7l7.7-7.7 7.8 7.7m-7.8-7.7v17.6m0 4.3v4.2m0 2.7v4.2m0 2.6v4.2m0 3.6v44m203.6 150.1l28.1-28.2m-6.6 28.2l28.1-28.2m-6.6 28.2l28.1-28.2m-6.6 28.2l28.1-28.2m-6.7 28.2l28.2-28.2m-6.7 28.2l28.2-28.2m-6.7 28.2l28.2-28.2m-6.7 28.2l28.2-28.2m-6.7 28.2l28.1-28.2m-6.6 28.2l28.1-28.2m-6.6 28.2l28.1-28.2m-243 8.8v-8.8h8.7m234.3 19.5v8.7h-8.7" class="X"/><g class="M Q"><use xlink:href="#L" x="242.4" y="56.2"/><use xlink:href="#L" x="272.2" y="86"/><path d="M344.6 274.8l37.6-37.7" class="T"/></g></g><defs ><path id="B" d="M439.4 43.1H296.9c-15.3 0-27.8 12.4-27.8 27.8v127.7h96.6c-15.4 0-27.8 12.4-27.8 27.8v5.3c0 15.3 12.4 27.8 27.8 27.8h18.1c15.3 0 27.8-12.4 27.8-27.8V70.9c0-15.3 12.5-27.8 27.8-27.8z"/><path id="C" d="M338 231.8v-5.3c0-15.3 12.4-27.8 27.8-27.8H238c-15.3 0-27.8 12.4-27.8 27.8v5.3c0 15.3 12.4 27.8 27.8 27.8h127.8c-15.3 0-27.8-12.5-27.8-27.8z"/><path id="D" d="m470.6 91.9v-21c0-15.3-12.4-27.8-27.8-27.8h-3.4c-15.3 0-27.8 12.4-27.8 27.8v21h59z"/><path id="E" d="M343.5 127.7H201.1c-15.3 0-27.8 12.4-27.8 27.8v96.9h96.6c-15.3 0-27.8 12.4-27.8 27.8v5.3c0 15.3 12.4 27.8 27.8 27.8H288c15.3 0 27.8-12.4 27.8-27.8v-130c-.1-15.3 12.4-27.8 27.7-27.8z"/><path id="F" d="M242.1 285.5v-5.3c0-15.3 12.4-27.8 27.8-27.8H142.1c-15.3 0-27.8 12.4-27.8 27.8v5.3c0 15.3 12.4 27.8 27.8 27.8h127.8c-15.3 0-27.8-12.4-27.8-27.8z"/><path id="G" d="m219.8 240.8v44.6c0 15.3 12.4 27.8 27.8 27.8h3.4c15.3 0 27.8-12.4 27.8-27.8v-44.7h-59z"/><path id="H" d="M188.2 283.8h247.3c10.3 0 18.7 8.4 18.7 18.7v127.4c0 12.6 10.3 22.9 22.9 22.9H192.5c-12.7 0-22.9-10.3-22.9-22.9V302.4c-.1-10.2 8.3-18.6 18.6-18.6z"/><path id="I" d="M454.1 429.9V302.5c0-10.3-8.4-18.7-18.7-18.7H200.6v-25.3c0-10.8 8.7-19.5 19.5-19.5h182.8l9.2-17.6c3.4-6.4 10-10.4 17.2-10.4h51.2c10.7 0 19.5 8.7 19.5 19.4v132.5c0 .8-.1 1.6-.2 2.4.1.8.2 1.6.2 2.4v62.2c0 12.6-10.2 22.9-22.9 22.9s-23-10.3-23-22.9z"/><path id="J" d="M241.3 234.9H98.8c-15.3 0-27.8 12.4-27.8 27.8v179.2h96.6c-15.3 0-27.8 12.4-27.8 27.8v5.3c0 15.3 12.4 27.8 27.8 27.8h18.1c15.3 0 27.8-12.4 27.8-27.8V262.7c0-15.4 12.4-27.8 27.8-27.8z"/><path id="K" d="M139.9 475v-5.3c0-15.3 12.4-27.8 27.8-27.8H39.8c-15.3 0-27.8 12.4-27.8 27.8v5.3c0 15.3 12.4 27.8 27.8 27.8h127.8c-15.3 0-27.7-12.5-27.7-27.8z"/><path id="L" d="m113.9 184.8c0 4.3-3.5 7.8-7.8 7.8s-7.8-3.5-7.8-7.8 3.5-7.8 7.8-7.8 7.8 3.5 7.8 7.8z"/><path id="M" d="M400.4 179h-46.7l-37.9 38v76.6c0 5.9 4.8 10.6 10.6 10.6h74c5.9 0 10.6-4.8 10.6-10.6V189.7c0-5.9-4.7-10.7-10.6-10.7z"/></defs></svg>